<?xml version="1.0" encoding="utf-8"?>
<!-- Generator: Adobe Illustrator 19.0.0, SVG Export Plug-In . SVG Version: 6.00 Build 0)  -->
<svg xmlns="http://www.w3.org/2000/svg" xmlns:xlink="http://www.w3.org/1999/xlink" version="1.1" x="0px" y="0px" viewBox="0 0 649 485" style="enable-background:new 0 0 649 485;" xml:space="preserve">
<style type="text/css">
	.st0{fill:url(#SVGID_1_);}
	.st1{fill:#FFFFFF;}
	.st2{fill:#FFFF00;}
	.st3{fill:#3333CC;}
	.st4{fill:#FF9900;}
</style>

<g id="FreeVector.com_License">
	<g>
		<g id="FreeVector.com_Logo_20_">
			<g id="FreeVector.com_Logo_21_">
				<path d="M120.2,499.8c0-0.9-0.8-1.5-1.6-1.5c-1.9,0-2.1,1.6-2.1,3c0,1.3,0.6,2.7,2,2.7c1.1,0,1.7-0.7,1.9-1.7h3.2      c-0.3,2.7-2.4,4.3-5.1,4.3c-3,0-5.3-2.1-5.3-5.2c0-3.2,2-5.5,5.3-5.5c2.5,0,4.8,1.3,5,4H120.2z"/>
				<path d="M128.8,495.9c-3.1,0-5.3,2.3-5.3,5.3c0,3,2.2,5.3,5.3,5.3c3.1,0,5.3-2.3,5.3-5.3C134.1,498.2,131.9,495.9,128.8,495.9z"/>
				<path d="M111.5,503.4c-0.9,0-1.5,0.6-1.5,1.5c0,0.8,0.6,1.5,1.5,1.5c0.9,0,1.5-0.6,1.5-1.5C112.9,504,112.3,503.4,111.5,503.4z"/>
				<path d="M134.4,496.5h3.1v1.4h0c0.6-1,1.6-1.6,2.8-1.6c1.2,0,2.3,0.4,2.9,1.6c0.8-1,1.7-1.6,3.1-1.6c3.1,0,3.5,2.4,3.5,4.3v5.9      h-3.2v-5.8c0-1.1-0.5-1.7-1.3-1.7c-1.4,0-1.5,1.1-1.5,2.7v4.8h-3.2v-5.6c0-1.2-0.3-1.9-1.2-1.9c-1.2,0-1.7,0.7-1.7,2.7v4.8h-3.2      V496.5z"/>
				<polygon points="68.7,506.3 65,506.3 61.7,496.5 65,496.5 66.8,503 66.9,503 68.7,496.5 71.9,496.5     "/>
				<path d="M73.7,502.2c0.1,1.3,0.8,2.2,2.2,2.2c0.8,0,1.5-0.4,1.8-1.1h3c-0.6,2.3-2.7,3.2-4.9,3.2c-3.2,0-5.3-1.9-5.3-5.2      c0-3,2.4-5.1,5.3-5.1c3.5,0,5.2,2.6,5.1,5.9H73.7z"/>
				<path d="M87.7,500.1c0-0.8-0.8-1.4-1.6-1.4c-1.8,0-2.1,1.5-2.1,2.9c0,1.3,0.5,2.6,1.9,2.6c1.1,0,1.7-0.6,1.8-1.7h3.1      c-0.3,2.6-2.3,4.1-4.9,4.1c-2.9,0-5.1-2-5.1-5c0-3.1,2-5.3,5.1-5.3c2.4,0,4.6,1.3,4.8,3.9H87.7z"/>
				<path d="M96.9,498.6h-2v4.4c0,0.8,0.5,0.9,1.1,0.9c0.3,0,0.5,0,0.8,0v2.4c-0.6,0-1.2,0.1-1.7,0.1c-2.7,0-3.4-0.8-3.4-3.4v-4.3      h-1.6v-2.1h1.6v-3H95v3h2V498.6z"/>
				<path d="M101.3,496.2c-3,0-5.1,2.2-5.1,5.2c0,2.9,2.1,5.2,5.1,5.2c3,0,5.2-2.2,5.2-5.2C106.5,498.5,104.4,496.2,101.3,496.2z"/>
				<path d="M106.3,496.5h3.1v1.7h0c0.5-1.2,1.6-1.9,2.9-1.9c0.2,0,0.5,0,0.8,0.1v2.9c-0.4-0.1-0.8-0.2-1.2-0.2      c-1.6,0-2.4,1.1-2.4,2.3v4.8h-3.2V496.5z"/>
				<path d="M36.6,496.5h3.1v1.7h0c0.5-1.2,1.6-1.9,2.9-1.9c0.2,0,0.5,0,0.7,0.1v2.9c-0.4-0.1-0.8-0.2-1.2-0.2      c-1.6,0-2.4,1.1-2.4,2.3v4.8h-3.2V496.5z"/>
				<path d="M45.5,502.2c0.1,1.3,0.8,2.2,2.2,2.2c0.8,0,1.5-0.4,1.8-1.1h3c-0.6,2.3-2.7,3.2-4.9,3.2c-3.2,0-5.3-1.9-5.3-5.2      c0-3,2.4-5.1,5.3-5.1c3.5,0,5.2,2.6,5.1,5.9H45.5z"/>
				<path d="M55.6,502.2c0.1,1.3,0.8,2.2,2.2,2.2c0.8,0,1.5-0.4,1.8-1.1h3c-0.6,2.3-2.7,3.2-4.9,3.2c-3.2,0-5.3-1.9-5.3-5.2      c0-3,2.4-5.1,5.3-5.1c3.5,0,5.2,2.6,5.1,5.9H55.6z"/>
				<path d="M36,495.1c0.3,0,0.6,0,0.9,0.1v-2.3c-0.5,0-1-0.1-1.5-0.1c-2.7,0-3.7,0.9-3.7,3.7h-1.5v2.1h1.5v7.7h3.2v-7.7h1.9v-2.1      h-1.9v-0.4C34.8,495.2,35.3,495.1,36,495.1z"/>
			</g>
			<g id="FreeVector_Icon_3_">
				<circle class="st1" cx="19.7" cy="499.6" r="7.2"/>
				<g>
					<path d="M19.7,492.4c-0.7,0-1.3,0.1-1.9,0.2c0.2,0,0.4,0.2,0.5,0.5c0,0,1.4,4.5,1.5,5c0.2,0.5,0.4,1.1,0.4,1.1       c-0.1,0.1-0.2,0.2-0.3,0.4c-0.1,0.3-0.2,0.5-0.2,0.8c-0.2-0.4-1-1.4-1.6-2c0,0,0-0.4-0.2-0.9c-0.1-0.4-0.9-3.3-0.9-3.3       c-0.1-0.5-0.1-1,0.2-1.3c-2.8,1-4.9,3.7-4.9,6.8c0,2.9,1.7,5.3,4.1,6.5c-0.2-0.4-0.5-0.9-0.7-1.7c-0.2-1.3-0.3-2.2-0.4-2.9       c-0.2-1-0.2-1.2,0.2-1.7c0.2-0.2,0.4-0.3,0.5-0.4c0.2,0,0.4,0.1,0.4,0.1c0.4,0.5,1.2,1.3,1.3,1.5c0.2,0.2,0.2,0.5,0.1,0.9       c-0.1,0.1-0.2,0.2-0.3,0.2c-0.3,0.1-0.6,0-0.7-0.1c-0.2-0.2-1.3-1.2-1.3-1.2c0,0.3,0.8,0.9,1.2,1.3c0.2,0.2,0.6,0.2,0.9,0.1       c0.2-0.1,0.4-0.2,0.5-0.3c0.1-0.3,0.1-0.5,0.1-0.7c0.3,0.2,0.6,0.3,0.9,0.2c0.3-0.1,0.5-0.3,0.6-0.4c0,0.2,0.1,0.4,0.1,0.7       c0.1,0.6,0.2,1,0.3,1.2c0,0.1,0.1,0.2,0.1,0.2c0,0,0,0,0,0c-0.2,0.2-0.4,0.6-0.6,1.1c-0.1,0.3-0.2,0.8-0.2,1.2       c0,0.1,0,0.4,0,0.4c0,0,0-0.2,0.1-0.4c0-0.4,0.1-0.8,0.2-1.1c0.2-0.4,0.4-0.7,0.6-1c0,0,0,0,0,0c0.1-0.1,0-0.2,0-0.3       c-0.1-0.2-0.2-0.6-0.3-1.2c-0.1-0.9-0.2-1.3,0.1-2c0.3-0.6,1-0.6,1.2-0.5c0.1,0,0.1,0.4,0.1,0.7c0,0.3,0,0.8,0.1,1.3       c0.1,0.7,0.3,1.2,0.6,1.5c0.2,0.2,0.4,0.3,0.4,0.3c0,0-0.1-0.2-0.3-0.4c-0.2-0.3-0.4-0.8-0.5-1.4c-0.1-0.5-0.1-0.9-0.1-1.3       c0-0.5,0-0.8-0.2-0.9c-0.1,0-0.3-0.1-0.5,0l1.4-4.5c0.2-0.8,0.5-1.2,1-1.1c0,0,0,0,0,0C22.2,492.7,21,492.4,19.7,492.4z        M19,501.2c-0.4,0.1-0.8-0.2-1-0.4c-0.2-0.2-1.2-1.3-1.4-1.5c-0.3-0.3-0.1-0.9,0.6-1.2c0.2-0.1,0.5-0.1,0.6,0.1       c0.8,0.9,1.6,1.9,1.6,2.1C19.6,500.8,19.4,501,19,501.2z M22.2,502.9L22.2,502.9C22.2,502.9,22.2,502.9,22.2,502.9       C22.2,502.9,22.2,502.9,22.2,502.9z"/>
					<path d="M23.6,493.5c0.2,0.2,0.2,0.4,0.2,0.7l-1.2,5.4c-0.1,0.4-0.2,1.3-0.1,1.9c0.1,0.8,0.5,1.9,0.2,3.1       c-0.1,0.6-0.3,1.3-0.6,1.9c2.9-1,5-3.7,5-6.8C27,497,25.7,494.8,23.6,493.5z"/>
				</g>
			</g>
		</g>
		<g id="Legal_Line">
			<g>
				<path d="M164.3,496.7h2.5v9.6h-2.5V496.7z"/>
				<path d="M168.4,499.3h2.2v1h0c0.4-0.7,1.2-1.2,2-1.2c0.9,0,1.7,0.3,2,1.1c0.6-0.7,1.2-1.1,2.2-1.1c2.2,0,2.5,1.7,2.5,3v4.2H177      v-4.1c0-0.8-0.4-1.2-1-1.2c-1,0-1.1,0.8-1.1,1.9v3.4h-2.3v-4c0-0.8-0.2-1.3-0.9-1.3c-0.8,0-1.2,0.5-1.2,1.9v3.4h-2.3V499.3z"/>
				<path d="M180.7,501.5c0-0.9,0.5-1.5,1.1-1.9c0.6-0.3,1.4-0.5,2.2-0.5c1.7,0,3.2,0.4,3.2,2.3v3c0,0.6,0,1.2,0.3,1.8h-2.3      c-0.1-0.2-0.1-0.4-0.1-0.7c-0.6,0.6-1.5,0.9-2.3,0.9c-1.3,0-2.4-0.7-2.4-2.1c0-2.3,2.5-2.1,4.1-2.4c0.4-0.1,0.6-0.2,0.6-0.6      c0-0.5-0.6-0.7-1.1-0.7c-0.6,0-1,0.3-1.1,0.9H180.7z M183.7,505.1c1.1,0,1.5-0.6,1.4-2.1c-0.3,0.2-0.9,0.2-1.4,0.4      c-0.5,0.1-0.9,0.3-0.9,0.9C182.7,504.9,183.2,505.1,183.7,505.1z"/>
				<path d="M195.5,505.5c0,1.1-0.2,3.3-3.5,3.3c-1.6,0-3.2-0.4-3.4-2.2h2.3c0.1,0.3,0.2,0.5,0.4,0.6c0.2,0.1,0.5,0.1,0.8,0.1      c1.1,0,1.2-0.8,1.2-1.6V505h0c-0.4,0.6-1.1,1-1.9,1c-2.1,0-3.1-1.5-3.1-3.5c0-1.9,1.1-3.4,3.1-3.4c0.8,0,1.5,0.4,1.9,1.1h0v-0.9      h2.2V505.5z M192,500.9c-1,0-1.3,0.9-1.3,1.7c0,0.8,0.4,1.6,1.3,1.6c1,0,1.4-0.8,1.4-1.6C193.4,501.8,193,500.9,192,500.9z"/>
				<path d="M198.9,503.4c0,1,0.6,1.6,1.6,1.6c0.6,0,1.1-0.3,1.3-0.8h2.1c-0.4,1.6-1.9,2.3-3.5,2.3c-2.3,0-3.8-1.4-3.8-3.7      c0-2.1,1.7-3.7,3.8-3.7c2.5,0,3.7,1.9,3.6,4.2H198.9z M201.8,502.1c0-0.8-0.6-1.4-1.4-1.4c-0.8,0-1.3,0.6-1.5,1.4H201.8z"/>
				<path d="M207,504c0,0.3,0.1,0.6,0.4,0.8c0.2,0.2,0.5,0.2,0.8,0.2c0.4,0,1.1-0.2,1.1-0.7c0-0.5-0.7-0.6-1.1-0.7      c-1.4-0.4-3.2-0.4-3.2-2.3c0-1.7,1.8-2.1,3.2-2.1c1.5,0,3.1,0.4,3.2,2.3h-2.1c0-0.3-0.1-0.5-0.3-0.6c-0.2-0.1-0.4-0.2-0.7-0.2      c-0.4,0-1,0-1,0.5c0,0.7,1.5,0.8,2.6,1c1.4,0.3,1.8,1.3,1.8,1.9c0,1.9-1.8,2.5-3.3,2.5c-1.7,0-3.3-0.6-3.4-2.5H207z"/>
			</g>
			<g>
				<path d="M216.8,501.5c0-0.9,0.5-1.5,1.1-1.9c0.6-0.3,1.4-0.5,2.2-0.5c1.7,0,3.2,0.4,3.2,2.3v3c0,0.6,0,1.2,0.3,1.8h-2.3      c-0.1-0.2-0.1-0.4-0.1-0.7c-0.6,0.6-1.5,0.9-2.3,0.9c-1.3,0-2.4-0.7-2.4-2.1c0-2.3,2.5-2.1,4.1-2.4c0.4-0.1,0.6-0.2,0.6-0.6      c0-0.5-0.6-0.7-1.1-0.7c-0.6,0-1,0.3-1.1,0.9H216.8z M219.7,505.1c1.1,0,1.5-0.6,1.4-2.1c-0.3,0.2-0.9,0.2-1.4,0.4      c-0.5,0.1-0.9,0.3-0.9,0.9C218.8,504.9,219.2,505.1,219.7,505.1z"/>
				<path d="M224.9,499.3h2.2v1.2h0c0.3-0.9,1.1-1.4,2.1-1.4c0.2,0,0.4,0,0.5,0.1v2.1c-0.3-0.1-0.6-0.1-0.9-0.1      c-1.1,0-1.7,0.8-1.7,1.7v3.5h-2.3V499.3z"/>
				<path d="M232.3,503.4c0,1,0.6,1.6,1.6,1.6c0.6,0,1.1-0.3,1.3-0.8h2.1c-0.4,1.6-1.9,2.3-3.5,2.3c-2.3,0-3.8-1.4-3.8-3.7      c0-2.1,1.7-3.7,3.8-3.7c2.5,0,3.7,1.9,3.6,4.2H232.3z M235.1,502.1c0-0.8-0.6-1.4-1.4-1.4c-0.8,0-1.3,0.6-1.5,1.4H235.1z"/>
			</g>
			<g>
				<path d="M242.7,499.3h2.2v0.8h0c0.4-0.7,1.1-1,1.9-1c2.2,0,3.1,1.9,3.1,3.8c0,1.8-1,3.5-2.9,3.5c-0.9,0-1.5-0.3-2-1h0v3.1h-2.3      V499.3z M244.9,502.8c0,1.2,0.3,2,1.4,2c1,0,1.4-1.1,1.4-2c0-0.9-0.3-1.9-1.4-1.9C245.7,500.9,244.9,501.3,244.9,502.8z"/>
				<path d="M251.3,499.3h2.2v1.2h0c0.3-0.9,1.1-1.4,2.1-1.4c0.2,0,0.4,0,0.5,0.1v2.1c-0.3-0.1-0.6-0.1-0.9-0.1      c-1.1,0-1.7,0.8-1.7,1.7v3.5h-2.3V499.3z"/>
				<path d="M260,499.1c2.2,0,3.7,1.6,3.7,3.7s-1.5,3.7-3.7,3.7c-2.2,0-3.7-1.6-3.7-3.7S257.8,499.1,260,499.1z M260,504.8      c1.1,0,1.4-1,1.4-1.9c0-0.9-0.3-1.9-1.4-1.9c-1.1,0-1.4,1.1-1.4,1.9C258.6,503.7,258.9,504.8,260,504.8z"/>
				<path d="M264.9,499.3h2.2v0.8h0c0.4-0.7,1.1-1,1.9-1c2.2,0,3.1,1.9,3.1,3.8c0,1.8-1,3.5-2.9,3.5c-0.9,0-1.5-0.3-2-1h0v3.1h-2.3      V499.3z M267.1,502.8c0,1.2,0.3,2,1.4,2c1,0,1.4-1.1,1.4-2c0-0.9-0.3-1.9-1.4-1.9C267.9,500.9,267.1,501.3,267.1,502.8z"/>
				<path d="M275.3,503.4c0,1,0.6,1.6,1.6,1.6c0.6,0,1.1-0.3,1.3-0.8h2.1c-0.4,1.6-1.9,2.3-3.5,2.3c-2.3,0-3.8-1.4-3.8-3.7      c0-2.1,1.7-3.7,3.8-3.7c2.5,0,3.7,1.9,3.6,4.2H275.3z M278.1,502.1c0-0.8-0.6-1.4-1.4-1.4c-0.8,0-1.3,0.6-1.5,1.4H278.1z"/>
				<path d="M281.6,499.3h2.2v1.2h0c0.3-0.9,1.1-1.4,2.1-1.4c0.2,0,0.4,0,0.5,0.1v2.1c-0.3-0.1-0.6-0.1-0.9-0.1      c-1.1,0-1.7,0.8-1.7,1.7v3.5h-2.3V499.3z"/>
				<path d="M291.5,500.8H290v3.2c0,0.5,0.3,0.7,0.8,0.7c0.2,0,0.4,0,0.6,0v1.7c-0.4,0-0.8,0.1-1.2,0.1c-1.9,0-2.4-0.6-2.4-2.5v-3.1      h-1.2v-1.5h1.2v-2.1h2.3v2.1h1.4V500.8z"/>
				<path d="M296.3,506.9c-0.6,1.5-1.4,1.7-2.9,1.7h-1.1v-1.9h0.8c0.5,0,0.9-0.3,0.9-0.8c0-0.4-0.4-1.4-0.6-1.8l-1.8-4.8h2.4      l1.3,4.5h0l1.3-4.5h2.3L296.3,506.9z"/>
			</g>
			<g>
				<path d="M307.2,499.1c2.2,0,3.7,1.6,3.7,3.7s-1.5,3.7-3.7,3.7c-2.2,0-3.7-1.6-3.7-3.7S305.1,499.1,307.2,499.1z M307.2,504.8      c1.1,0,1.4-1,1.4-1.9c0-0.9-0.3-1.9-1.4-1.9c-1.1,0-1.4,1.1-1.4,1.9C305.9,503.7,306.2,504.8,307.2,504.8z"/>
				<path d="M312.6,500.8h-1.1v-1.5h1.1c0-2,0.7-2.6,2.6-2.6c0.4,0,0.7,0,1.1,0v1.6c-0.2,0-0.4,0-0.6,0c-0.5,0-0.8,0.1-0.8,0.7v0.3      h1.4v1.5h-1.4v5.5h-2.3V500.8z"/>
			</g>
			<g>
				<path d="M325.5,500.8h-1.4v3.2c0,0.5,0.3,0.7,0.8,0.7c0.2,0,0.4,0,0.6,0v1.7c-0.4,0-0.8,0.1-1.2,0.1c-1.9,0-2.4-0.6-2.4-2.5      v-3.1h-1.2v-1.5h1.2v-2.1h2.3v2.1h1.4V500.8z"/>
				<path d="M326.5,496.7h2.3v3.6h0c0.3-0.7,1.3-1.2,2.1-1.2c2.3,0,2.5,1.7,2.5,2.7v4.5h-2.3v-3.4c0-1,0.1-1.9-1.1-1.9      c-0.9,0-1.2,0.7-1.2,1.5v3.8h-2.3V496.7z"/>
				<path d="M336.9,503.4c0,1,0.6,1.6,1.6,1.6c0.6,0,1.1-0.3,1.3-0.8h2.1c-0.4,1.6-1.9,2.3-3.5,2.3c-2.3,0-3.8-1.4-3.8-3.7      c0-2.1,1.7-3.7,3.8-3.7c2.5,0,3.7,1.9,3.6,4.2H336.9z M339.8,502.1c0-0.8-0.6-1.4-1.4-1.4c-0.8,0-1.3,0.6-1.5,1.4H339.8z"/>
			</g>
			<g>
				<path d="M354.3,506.3h-2.2v-0.8h0c-0.4,0.7-1.1,1-1.9,1c-2.2,0-3.1-1.9-3.1-3.8c0-1.8,1-3.5,2.9-3.5c0.9,0,1.5,0.3,2,1h0v-3.4      h2.3V506.3z M349.4,502.8c0,1,0.3,2,1.4,2c1.1,0,1.4-1.1,1.4-1.9c0-1-0.4-1.9-1.4-1.9C349.7,500.9,349.4,501.9,349.4,502.8z"/>
				<path d="M357.8,503.4c0,1,0.6,1.6,1.6,1.6c0.6,0,1.1-0.3,1.3-0.8h2.1c-0.4,1.6-1.9,2.3-3.5,2.3c-2.3,0-3.8-1.4-3.8-3.7      c0-2.1,1.7-3.7,3.8-3.7c2.5,0,3.7,1.9,3.6,4.2H357.8z M360.7,502.1c0-0.8-0.6-1.4-1.4-1.4c-0.8,0-1.3,0.6-1.5,1.4H360.7z"/>
				<path d="M365.8,504c0,0.3,0.1,0.6,0.4,0.8c0.2,0.2,0.5,0.2,0.8,0.2c0.4,0,1.1-0.2,1.1-0.7c0-0.5-0.7-0.6-1.1-0.7      c-1.4-0.4-3.2-0.4-3.2-2.3c0-1.7,1.8-2.1,3.2-2.1c1.5,0,3.1,0.4,3.2,2.3h-2.1c0-0.3-0.1-0.5-0.3-0.6c-0.2-0.1-0.4-0.2-0.7-0.2      c-0.4,0-1,0-1,0.5c0,0.7,1.5,0.8,2.6,1c1.4,0.3,1.8,1.3,1.8,1.9c0,1.9-1.8,2.5-3.3,2.5c-1.7,0-3.3-0.6-3.4-2.5H365.8z"/>
				<path d="M373.9,498.5h-2.3v-1.7h2.3V498.5z M371.6,499.3h2.3v7h-2.3V499.3z"/>
				<path d="M382.3,505.5c0,1.1-0.2,3.3-3.5,3.3c-1.6,0-3.2-0.4-3.4-2.2h2.3c0.1,0.3,0.2,0.5,0.4,0.6c0.2,0.1,0.5,0.1,0.8,0.1      c1.1,0,1.2-0.8,1.2-1.6V505h0c-0.4,0.6-1.1,1-1.9,1c-2.1,0-3.1-1.5-3.1-3.5c0-1.9,1.1-3.4,3.1-3.4c0.8,0,1.5,0.4,1.9,1.1h0v-0.9      h2.2V505.5z M378.7,500.9c-1,0-1.3,0.9-1.3,1.7c0,0.8,0.4,1.6,1.3,1.6c1,0,1.4-0.8,1.4-1.6C380.1,501.8,379.7,500.9,378.7,500.9      z"/>
				<path d="M383.7,499.3h2.2v1h0c0.4-0.7,1.4-1.2,2.2-1.2c2.3,0,2.5,1.7,2.5,2.7v4.5h-2.3v-3.4c0-1,0.1-1.9-1.1-1.9      c-0.9,0-1.2,0.7-1.2,1.5v3.8h-2.3V499.3z"/>
				<path d="M394.1,503.4c0,1,0.6,1.6,1.6,1.6c0.6,0,1.1-0.3,1.3-0.8h2.1c-0.4,1.6-1.9,2.3-3.5,2.3c-2.3,0-3.8-1.4-3.8-3.7      c0-2.1,1.7-3.7,3.8-3.7c2.5,0,3.7,1.9,3.6,4.2H394.1z M397,502.1c0-0.8-0.6-1.4-1.4-1.4c-0.8,0-1.3,0.6-1.5,1.4H397z"/>
				<path d="M400.5,499.3h2.2v1.2h0c0.3-0.9,1.1-1.4,2.1-1.4c0.2,0,0.4,0,0.5,0.1v2.1c-0.3-0.1-0.6-0.1-0.9-0.1      c-1.1,0-1.7,0.8-1.7,1.7v3.5h-2.3V499.3z"/>
			</g>
			<path d="M405,503.8h2.5v2.5H405V503.8z"/>
			<g>
				<path d="M422.7,500.2c-0.1-1-0.9-1.5-1.9-1.5c-1.6,0-2.2,1.4-2.2,2.8c0,1.4,0.6,2.8,2.2,2.8c1.2,0,1.8-0.7,1.9-1.8h2.5      c-0.1,2.5-1.9,3.9-4.4,3.9c-2.9,0-4.8-2.2-4.8-5c0-2.8,1.9-5,4.8-5c2.1,0,4.3,1.3,4.4,3.6H422.7z"/>
				<path d="M426.5,496.7h2.3v3.6h0c0.3-0.7,1.3-1.2,2.1-1.2c2.3,0,2.5,1.7,2.5,2.7v4.5h-2.3v-3.4c0-1,0.1-1.9-1.1-1.9      c-0.9,0-1.2,0.7-1.2,1.5v3.8h-2.3V496.7z"/>
				<path d="M436.9,503.4c0,1,0.6,1.6,1.6,1.6c0.6,0,1.1-0.3,1.3-0.8h2.1c-0.4,1.6-1.9,2.3-3.5,2.3c-2.3,0-3.8-1.4-3.8-3.7      c0-2.1,1.7-3.7,3.8-3.7c2.5,0,3.7,1.9,3.6,4.2H436.9z M439.7,502.1c0-0.8-0.6-1.4-1.4-1.4c-0.8,0-1.3,0.6-1.5,1.4H439.7z"/>
				<path d="M447.7,501.9c0-0.6-0.5-1-1.1-1c-1.3,0-1.5,1.1-1.5,2.1c0,0.9,0.4,1.8,1.4,1.8c0.8,0,1.2-0.5,1.3-1.2h2.2      c-0.2,1.9-1.7,2.9-3.5,2.9c-2.1,0-3.7-1.4-3.7-3.6c0-2.2,1.4-3.8,3.7-3.8c1.7,0,3.3,0.9,3.4,2.8H447.7z"/>
				<path d="M451.1,496.7h2.3v4.9l2.1-2.3h2.6l-2.6,2.6l2.9,4.3h-2.8l-1.7-2.8l-0.6,0.6v2.2h-2.3V496.7z"/>
			</g>
			<g>
				<path d="M463.3,496.7h2.3v9.6h-2.3V496.7z"/>
				<path d="M469.6,498.5h-2.3v-1.7h2.3V498.5z M467.3,499.3h2.3v7h-2.3V499.3z"/>
				<path d="M475.7,501.9c0-0.6-0.5-1-1.1-1c-1.3,0-1.5,1.1-1.5,2.1c0,0.9,0.4,1.8,1.4,1.8c0.8,0,1.2-0.5,1.3-1.2h2.2      c-0.2,1.9-1.7,2.9-3.5,2.9c-2.1,0-3.7-1.4-3.7-3.6c0-2.2,1.4-3.8,3.7-3.8c1.7,0,3.3,0.9,3.4,2.8H475.7z"/>
				<path d="M481.1,503.4c0,1,0.6,1.6,1.6,1.6c0.6,0,1.1-0.3,1.3-0.8h2.1c-0.4,1.6-1.9,2.3-3.5,2.3c-2.3,0-3.8-1.4-3.8-3.7      c0-2.1,1.7-3.7,3.8-3.7c2.5,0,3.7,1.9,3.6,4.2H481.1z M483.9,502.1c0-0.8-0.6-1.4-1.4-1.4c-0.8,0-1.3,0.6-1.5,1.4H483.9z"/>
				<path d="M487.4,499.3h2.2v1h0c0.4-0.7,1.4-1.2,2.2-1.2c2.3,0,2.5,1.7,2.5,2.7v4.5H492v-3.4c0-1,0.1-1.9-1.1-1.9      c-0.9,0-1.2,0.7-1.2,1.5v3.8h-2.3V499.3z"/>
				<path d="M497.6,504c0,0.3,0.1,0.6,0.4,0.8c0.2,0.2,0.5,0.2,0.8,0.2c0.4,0,1.1-0.2,1.1-0.7c0-0.5-0.7-0.6-1.1-0.7      c-1.4-0.4-3.2-0.4-3.2-2.3c0-1.7,1.8-2.1,3.2-2.1c1.5,0,3.1,0.4,3.2,2.3h-2.1c0-0.3-0.1-0.5-0.3-0.6c-0.2-0.1-0.4-0.2-0.7-0.2      c-0.4,0-1,0-1,0.5c0,0.7,1.5,0.8,2.6,1c1.4,0.3,1.8,1.3,1.8,1.9c0,1.9-1.8,2.5-3.3,2.5c-1.7,0-3.3-0.6-3.4-2.5H497.6z"/>
				<path d="M505.2,503.4c0,1,0.6,1.6,1.6,1.6c0.5,0,1.1-0.3,1.3-0.8h2.1c-0.4,1.6-1.9,2.3-3.5,2.3c-2.3,0-3.8-1.4-3.8-3.7      c0-2.1,1.7-3.7,3.8-3.7c2.5,0,3.7,1.9,3.6,4.2H505.2z M508.1,502.1c0-0.8-0.6-1.4-1.4-1.4c-0.8,0-1.3,0.6-1.5,1.4H508.1z"/>
			</g>
			<g>
				<path d="M516.2,500.8h-1.1v-1.5h1.1c0-2,0.7-2.6,2.6-2.6c0.4,0,0.7,0,1.1,0v1.6c-0.2,0-0.4,0-0.6,0c-0.5,0-0.8,0.1-0.8,0.7v0.3      h1.4v1.5h-1.4v5.5h-2.3V500.8z"/>
				<path d="M524,499.1c2.2,0,3.7,1.6,3.7,3.7s-1.5,3.7-3.7,3.7c-2.2,0-3.7-1.6-3.7-3.7S521.9,499.1,524,499.1z M524,504.8      c1.1,0,1.4-1,1.4-1.9c0-0.9-0.3-1.9-1.4-1.9c-1.1,0-1.4,1.1-1.4,1.9C522.6,503.7,523,504.8,524,504.8z"/>
				<path d="M529,499.3h2.2v1.2h0c0.3-0.9,1.1-1.4,2.1-1.4c0.2,0,0.4,0,0.5,0.1v2.1c-0.3-0.1-0.6-0.1-0.9-0.1      c-1.1,0-1.7,0.8-1.7,1.7v3.5H529V499.3z"/>
			</g>
			<g>
				<path d="M538.8,499.3h2.2v0.8h0c0.4-0.7,1.1-1,1.9-1c2.2,0,3.1,1.9,3.1,3.8c0,1.8-1,3.5-2.9,3.5c-0.9,0-1.5-0.3-2-1h0v3.1h-2.3      V499.3z M541,502.8c0,1.2,0.3,2,1.4,2c1,0,1.4-1.1,1.4-2c0-0.9-0.4-1.9-1.4-1.9C541.8,500.9,541,501.3,541,502.8z"/>
				<path d="M549.2,503.4c0,1,0.6,1.6,1.6,1.6c0.6,0,1.1-0.3,1.3-0.8h2.1c-0.4,1.6-1.9,2.3-3.5,2.3c-2.3,0-3.8-1.4-3.8-3.7      c0-2.1,1.7-3.7,3.8-3.7c2.5,0,3.7,1.9,3.6,4.2H549.2z M552.1,502.1c0-0.8-0.6-1.4-1.4-1.4c-0.8,0-1.3,0.6-1.5,1.4H552.1z"/>
				<path d="M555.6,499.3h2.2v1.2h0c0.3-0.9,1.1-1.4,2.1-1.4c0.2,0,0.4,0,0.5,0.1v2.1c-0.3-0.1-0.6-0.1-0.9-0.1      c-1.1,0-1.7,0.8-1.7,1.7v3.5h-2.3V499.3z"/>
				<path d="M561.2,499.3h2.2v1h0c0.4-0.7,1.2-1.2,2-1.2c0.9,0,1.7,0.3,2,1.1c0.6-0.7,1.2-1.1,2.2-1.1c2.2,0,2.5,1.7,2.5,3v4.2h-2.3      v-4.1c0-0.8-0.4-1.2-1-1.2c-1,0-1.1,0.8-1.1,1.9v3.4h-2.3v-4c0-0.8-0.2-1.3-0.9-1.3c-0.8,0-1.2,0.5-1.2,1.9v3.4h-2.3V499.3z"/>
				<path d="M576,498.5h-2.3v-1.7h2.3V498.5z M573.7,499.3h2.3v7h-2.3V499.3z"/>
				<path d="M581.8,500.8h-1.4v3.2c0,0.5,0.3,0.7,0.8,0.7c0.2,0,0.4,0,0.6,0v1.7c-0.4,0-0.8,0.1-1.2,0.1c-1.9,0-2.4-0.6-2.4-2.5      v-3.1H577v-1.5h1.2v-2.1h2.3v2.1h1.4V500.8z"/>
				<path d="M587,500.8h-1.4v3.2c0,0.5,0.3,0.7,0.8,0.7c0.2,0,0.4,0,0.6,0v1.7c-0.4,0-0.8,0.1-1.2,0.1c-1.9,0-2.4-0.6-2.4-2.5v-3.1      h-1.2v-1.5h1.2v-2.1h2.3v2.1h1.4V500.8z"/>
				<path d="M590,503.4c0,1,0.6,1.6,1.6,1.6c0.6,0,1.1-0.3,1.3-0.8h2.1c-0.4,1.6-1.9,2.3-3.5,2.3c-2.3,0-3.8-1.4-3.8-3.7      c0-2.1,1.7-3.7,3.8-3.7c2.5,0,3.7,1.9,3.6,4.2H590z M592.8,502.1c0-0.8-0.6-1.4-1.4-1.4c-0.8,0-1.3,0.6-1.5,1.4H592.8z"/>
				<path d="M603.2,506.3H601v-0.8h0c-0.4,0.7-1.1,1-1.9,1c-2.2,0-3.1-1.9-3.1-3.8c0-1.8,1-3.5,2.9-3.5c0.9,0,1.5,0.3,2,1h0v-3.4      h2.3V506.3z M598.2,502.8c0,1,0.3,2,1.4,2c1.1,0,1.4-1.1,1.4-1.9c0-1-0.4-1.9-1.4-1.9C598.6,500.9,598.2,501.9,598.2,502.8z"/>
			</g>
			<g>
				<path d="M615.9,506.3h-2.2v-1h0c-0.4,0.7-1.3,1.2-2.1,1.2c-2,0-2.6-1.2-2.6-3v-4.2h2.3v4c0,0.9,0.4,1.2,1.1,1.2      c0.5,0,1.2-0.3,1.2-1.6v-3.7h2.3V506.3z"/>
				<path d="M619.2,504c0,0.3,0.1,0.6,0.4,0.8c0.2,0.2,0.5,0.2,0.8,0.2c0.4,0,1.1-0.2,1.1-0.7c0-0.5-0.7-0.6-1.1-0.7      c-1.4-0.4-3.2-0.4-3.2-2.3c0-1.7,1.8-2.1,3.2-2.1c1.5,0,3.1,0.4,3.2,2.3h-2.1c0-0.3-0.1-0.5-0.3-0.6c-0.2-0.1-0.4-0.2-0.7-0.2      c-0.4,0-1,0-1,0.5c0,0.7,1.5,0.8,2.6,1c1.4,0.3,1.8,1.3,1.8,1.9c0,1.9-1.8,2.5-3.3,2.5c-1.7,0-3.3-0.6-3.4-2.5H619.2z"/>
				<path d="M626.8,503.4c0,1,0.6,1.6,1.6,1.6c0.6,0,1.1-0.3,1.3-0.8h2.1c-0.4,1.6-1.9,2.3-3.5,2.3c-2.3,0-3.8-1.4-3.8-3.7      c0-2.1,1.7-3.7,3.8-3.7c2.5,0,3.7,1.9,3.6,4.2H626.8z M629.6,502.1c0-0.8-0.6-1.4-1.4-1.4c-0.8,0-1.3,0.6-1.5,1.4H629.6z"/>
			</g>
			<path d="M633.2,503.8h2.5v2.5h-2.5V503.8z"/>
		</g>
	</g>
</g>
<g id="Vector_Graphics">
	<g>
		<path d="M186,360.5c-0.9,6.2,0.4,12.7,6.6,15.4c25.9,11.4,55.4-5.3,83.1,4c8.8,1.3,19.8,10.5,26.8,2.2c2.2-10.1-1.8-19.3-0.4-29    c7.5-7,18,0.4,26.8-3.1c10.1,8.8,20.7,15.8,32.5,19.3c5.7,3.5,5.3,10.5,5.7,16.3c-3.5,10.1-13.6,17.1-18.9,25.9    c-0.4,11.4,12.8,14.5,18.5,21.1c24.6,17.1,57.2,29.5,87.5,18c3.1-2.6,5.7-4.8,4.8-8.8c6.2-3.1,11.4-8.8,12.3-15.4    c0-9.7-7-18.9-15.8-22.9c-25.1-8.8-52.8,9.2-76.9-3.1c0.4-4,3.1-7.9,4-12.3c0-10.5,2.6-19.3,1.8-29c4-5.3,3.5-13.6,2.2-20.2    c7.9-10.6,15.4-20.7,20.2-32.5c4,1.3,6.2,4.4,6.2,8.8c0.9,4.4-4.4,8.4-0.9,11.4c4.4,0.9,5.3-3.1,7-5.7c4.8,1.8,3.5,9.2,8.8,9.2    c1.8-2.6,0-7-0.4-9.7c3.5,0.9,5.3,7.9,9.2,4.4c0-3.5-3.1-5.7-4.8-8.8c2.2-1.3,6.2,0.4,7.5-1.8c-5.3-4.8-14.1-5.3-19.3-11.9    c-4.4,0-7.5-5.3-10.6-8.4c0.9-5.3,1.3-11.9-0.4-17.1l-9.2,8.8c-13.2-6.6-25.9-13.2-39.6-17.2c6.2-3.5,12.3-8.4,13.6-16.3    c24.2-18.5,61.1-38.3,57.6-74.3c-2.2-35.6-27.3-69.9-60.2-83.1c12.8-18,33.9-25.1,54.1-29l0.9-0.4c-22,0.4-42.2,10.6-58,28.1    c-6.2-1.8-12.7-2.6-18.5-5.3c6.6-31.2,40.9-52.8,67.7-58.5c-29.9,5.3-62.9,25.9-69.9,58l-1.8,1.3c-6.2-0.9-12.8-0.4-18.5,1.8    c-4-22.4,9.7-41.3,21.5-59.4c-1.8-0.4-2.6,3.5-4.4,4.8C332,52.3,321.9,69,324.1,91c-29.9,7.9-63.3,24.2-74.3,56.7    c-2.2,27.3,16.3,48.8,16.3,75.6c-4.8,7-15.4,15.4-8.8,24.6c15,13.6,34.7,17.6,54.1,20.7c1.8,2.2,4.8,2.2,6.6,4.4    c-7,3.5-12.8,14.1-22.4,11.4l-11.4-3.5c-1.3,2.6-0.9,5.7,1.8,8.4l0.9,0.9c-1.3,2.2-5.3,0.4-4.4,4c7.5,2.6,22.4-3.1,20.2,11    c1.3,0.9,3.5,2.2,5.3,0.9c1.8-4-3.1-7.9,0-11.9c3.1-2.6,6.2-5.7,10.1-5.7l1.8,0.9c0.9,8.8,3.5,17.1,7,24.6    c-2.2,7.5-12.8,9.7-14.1,17.6c-6.2,6.6-17.1,1.8-22.9,10.1c-2.6,4.4-3.1,9.7-3.5,15c-11.4-4.8-22-15-33.4-21.1    c-15.4-11-39.1-14.1-57.6-7c-6.2,3.1-14.5,7.5-16.7,14.9C175.5,350.9,180.7,357,186,360.5z M368.5,295.5c7-0.9,15.4-0.9,21.5,2.6    l-9.7,19.8L368.5,295.5z"/>
		<path class="st2" d="M328.5,93.2c-0.9,0.9-0.9,2.2-2.2,2.6l-4-1.8c-27.7,6.6-59.4,24.2-69.9,53.2c0,27.3,14.5,50.6,16.7,76.5    c-3.1,6.2-13.2,11.4-11,19.8c9.2,14.1,26.4,18,42.6,20.2c10.1-1.8,18.9,6.6,26.4,13.2c1.8,3.5-3.1,2.6-2.6,5.3    c-4,14.5,2.6,27.7,8.4,39.6l-0.9,1.8c-2.2-0.4-4-3.5-4.8-4.8c-3.5,4.4-9.7,6.2-11.4,11.4c3.1,13.6,18.5,19.3,27.7,28.1    c10.1,5.3,21.5,12.3,33,5.3l0.9,0.9c-2.6,4-9.2,3.5-11,7c4.8,0.4,9.7,0,14.1-2.6c2.2-1.3,2.6-3.1,2.2-5.3l-3.1-0.9    c13.6-23.3-3.1-46.6-14.1-65.9l-7.9-1.3l3.1-2.6c21.1-4.8,38.7,4.8,54.1,16.3c0,5.3,0.9,11-1.3,14.9c4-0.9,1.3-6.6,5.3-8.8    c3.5,3.1,4.8,8.4,7.9,12.3c0.4-4.4-2.6-7.9-4-11.9c4-0.9,6.2,4,9.7,5.3c-0.4-4.4-6.6-5.7-7-9.2l7,1.3c-4-0.4-9.7-9.2-15.8-7.9    c-13.6-20.7-36.5-26.4-57.6-33.9c-8.4-3.5-11.4,5.7-15.8,9.2c-2.6-3.5,4-7.5-0.4-10.6c-5.3-1.8-11.9-0.9-16.3-4.8l1.3-1.3    c12.8,2.2,29,6.2,39.6-3.1c4.4-4,2.2-10.6,4.8-14.5l1.8,1.8c20.7-13.2,51.4-32.1,55-60.7c1.8-37.8-21.1-73.4-56.3-88.8    c-7-2.2-14.1-6.6-22.9-6.6l-1.3,1.8C342.5,89.3,334.6,92.4,328.5,93.2z"/>
		<path d="M336.4,113.5c-6.2,11.4-7.9,24.6-9.2,37.8c-4.4-7.5-4-16.7-6.2-25.1c-1.3,9.7,1.8,19.8,3.5,28.1    c-18,17.1-22.4,47.5-13.2,71.2c3.1,3.1,7.9,1.8,11,0c16.3-17.6,22.9-47,12.7-69c1.8-9.2,4.8-18.5,9.7-25.1c1.8,4,2.6,9.7,5.3,12.3    c2.6-9.2-9.7-15.4-1.8-23.3c-3.5,0.4-3.5,8.4-7.9,3.1l-0.4-0.4l2.6,5.7c-4.4,7.9-7,16.7-10.1,25.5c-2.2-3.5-2.2-6.6-2.2-11    c1.8-10.6,3.1-20.7,7-29.9H336.4z"/>
		<path d="M269.1,133.7v2.6l8.8-8.4C274,127.5,271.3,131,269.1,133.7z"/>
		<path d="M265.2,132.8c0,7,1.8,14.5,5.3,21.1l-1.3,0.9c-6.2-3.1-6.6-10.1-9.2-15.8c0,5.7,1.3,12.8,6.6,17.6    c-7.9,18.5-1.3,39.6,4.4,58c2.2,2.2,2.6,6.6,7,7c5.7,0.9,6.6-5.7,8.4-9.2c3.1-22-2.2-43.5-11-62c-0.4-4.8-1.8-9.2-1.3-14.5    c-2.6,3.5-0.9,10.6-1.3,14.5c-3.5-4.4-7-11.4-6.6-17.6H265.2z"/>
		<path class="st1" d="M317,165.8c2.6-1.3,9.7-1.3,10.5,3.1c3.5,13.6,0.4,29.5-11.4,36.9c-3.1,0.9-5.3-0.9-7.5-1.8    c0.9,7.9-0.4,17.6,7.5,22c15-4.4,17.1-20.7,20.7-33.4c0.9-12.3,5.3-29.5-7-37.4C323.6,154.8,319.7,160.9,317,165.8z"/>
		<path class="st1" d="M265.6,164.5v4.4c1.3-2.6,5.7-4.4,8.4-1.8c6.6,8.8,9.7,21.1,5.7,32.5c-2.6,4.4-7.9,4-11,1.8    c2.2,6.6,3.1,17.6,12.3,18.5c6.6-10.1,2.6-22.9,3.1-34.3c-2.6-10.1-2.6-21.1-10.6-29C268.2,155.2,266.9,161.4,265.6,164.5z"/>
		<path class="st3" d="M314.4,173.7c3.5-1.3,6.2,2.6,6.6,4.8c0,7-0.9,14.5-7.5,18.5l-4-0.9c0.4,2.6,0.4,5.7,3.5,7.9    c4.4,0.4,7.9-3.1,9.2-6.6c4-8.8,6.6-21.1,1.8-29.9C319.2,166.7,316.6,170.2,314.4,173.7z"/>
		<path class="st3" d="M266,173.7v1.8c6.2-3.1,7.9,4.8,9.7,8.4c0.4,4.8,1.3,11.9-4.4,13.6h-0.9c0,2.2,1.8,3.1,3.5,4    c4.4-0.4,4.4-4.8,4.8-7.9c1.3-10.1-1.8-18.9-7.5-25.5C267.4,167.1,267.4,171.5,266,173.7z"/>
		<path d="M279.2,229.1c4.8,2.6,11.9,7,15,13.2c0,2.6,1.8,4.4,1.3,7l-3.5,1.3c2.2,4.8,7.5,5.7,12.3,6.2l11.4-5.3    c-4.4-6.6-6.2-14.5-7-22c-4,3.1-7.9-2.6-12.3-3.1C290.2,226.4,284.1,226,279.2,229.1z"/>
		<path class="st4" d="M286.3,229.1c6.6,3.5,17.6,9.7,21.1,18.9c-2.6,3.1-6.2,4-10.1,4.4c3.5,2.6,9.7,2.2,13.6-0.4    c0.9-5.7-3.5-11.9-4.8-18C300.8,229.1,293.3,227.8,286.3,229.1z"/>
		<path class="st4" d="M297.3,246.7c1.8-4.4-2.6-8.4-4.8-11.9C291.1,238.8,295.5,242.7,297.3,246.7z"/>
		<path class="st1" d="M302.5,248v0.9l2.2-2.2C303,246.2,303,247.1,302.5,248z"/>
		<path class="st2" d="M287.6,284.5c5.7,4,18.9,7,15.8,18.5l2.2,1.8c-2.6-6.2,0-15.4,7.5-17.1c3.1,0.4,4.4-6.2,7.5-0.9    c0-3.5,7-9.7,0-11.4C309.6,280.1,301.2,293.7,287.6,284.5z"/>
		<path class="st2" d="M402.3,287.1l5.7,4.8v-11.4C405.8,281.8,402.3,284,402.3,287.1z"/>
		<path class="st2" d="M288.5,292.8l8.8,0.4c0.9-1.3-1.8-2.2-3.1-2.2C292.4,292.8,290.2,292,288.5,292.8z"/>
		<path d="M332.9,305.6l5.3,8.8c0-7-6.2-14.1-4.4-22.4C329.3,295,332.4,301.2,332.9,305.6z"/>
		<path class="st2" d="M391.8,299.9c-4.8,10.1-15.8,22.9-5.3,34.3c8.4-7.9,15.4-17.1,18.5-28.1C401.5,302.5,396.6,299.4,391.8,299.9    z"/>
		<path class="st4" d="M180.7,344.7c-0.9,4.8,0.9,9.2,4.8,11.4c2.6-1.3,5.7-6.2,9.2-7.9c6.6-3.5,14.5-6.2,22.4-3.5    c-4.4,2.2-10.6,1.8-15.4,4c-5.7,2.6-11.9,6.6-13.6,12.8c-1.3,6.6,3.5,11.4,8.8,13.2c29.5,8.4,62.9-8.4,90.6,6.6    c4,0.4,7.5,3.1,11.9,1.3c2.2-8.8,0-19.8,0-29c-1.3,0.9-1.8-0.9-2.6-1.3c4-4,10.1-4,15.8-4.8l-4.8-10.1c-6.2,0.4-15.4,0.4-17.6,8.4    c-1.8,7.5-0.4,14.1-4,20.7c-3.1-0.9-0.9-4.8-2.2-7c-27.3-18.9-59.8-46.6-94.5-25.5C185.6,336.4,182.5,339.9,180.7,344.7z"/>
		<path class="st2" d="M314,343.4c2.2,4.4,7,6.6,11,5.3c-2.6-4.4-10.6-9.2-12.3-14.9C310,336.8,312.6,340.8,314,343.4z"/>
		<path class="st4" d="M368.9,375.9c0.4,5.7,1.3,10.6-0.4,16.3c-6.6,4.8-12.8,13.2-18,19.8c3.1,10.6,15.8,15.4,23.7,22.4    c22,14.9,51.9,24.2,78.7,14.5c4.8-2.6,4-7.5,2.6-11.9c-5.3-11-17.1-13.6-27.7-15.8v-1.3c12.3-0.9,25.1,4.8,30.8,15.8l0.4,2.2    c4.4-0.9,7.9-5.3,9.7-8.8c2.2-6.2-1.3-11.4-4.4-16.3c-25.1-24.2-58,4.4-87.1-10.1c-3.1,1.8-4.4,6.6-8.4,7.5    c1.3-6.6,8.8-11.9,10.6-18.5c1.8-5.7,1.8-13.6,0-19.3L368.9,375.9z"/>
	</g>
</g>
</svg>
